<?xml version="1.0" standalone="no"?><svg xmlns="http://www.w3.org/2000/svg" viewBox="0 0 1440 320"><path fill="#0099ff" fill-opacity="0.9" d="M0,64L26.7,96C53.3,128,107,192,160,186.7C213.3,181,267,107,320,90.7C373.3,75,427,117,480,138.7C533.3,160,587,160,640,165.3C693.3,171,747,181,800,170.7C853.3,160,907,128,960,101.3C1013.3,75,1067,53,1120,85.3C1173.3,117,1227,203,1280,213.3C1333.3,224,1387,160,1413,128L1440,96L1440,0L1413.3,0C1386.7,0,1333,0,1280,0C1226.7,0,1173,0,1120,0C1066.7,0,1013,0,960,0C906.7,0,853,0,800,0C746.7,0,693,0,640,0C586.7,0,533,0,480,0C426.7,0,373,0,320,0C266.7,0,213,0,160,0C106.7,0,53,0,27,0L0,0Z"></path></svg>